<svg width="229" height="81" viewBox="0 0 229 81" fill="none" xmlns="http://www.w3.org/2000/svg">
<path d="M228.141 80.736V0H215.277V80.736H228.141Z" fill="#A18674"/>
<path d="M153.767 29.952V40.704H122.951V50.688H147.431V61.728C147.367 64.096 147.111 66.336 146.663 68.448C146.279 70.56 145.831 72.416 145.319 74.016C144.743 75.872 144.103 77.6 143.399 79.2H131.591C132.679 77.088 133.511 74.976 134.087 72.864C134.663 70.816 135.079 68.96 135.335 67.296C135.591 65.376 135.719 63.52 135.719 61.728H89.2548V50.688H110.855V40.704H81.8628V29.952H99.0468C99.7508 26.752 100.327 23.712 100.775 20.832C101.223 17.952 101.511 14.944 101.639 11.808H88.4868V0.959961H115.367V9.79196C115.047 13.504 114.503 17.184 113.735 20.832C113.031 24.48 112.327 27.52 111.623 29.952H130.631C131.463 26.304 132.135 22.816 132.647 19.488C133.159 16.096 133.351 13.536 133.223 11.808H121.031V0.959961H146.951V9.79196C146.823 14.016 146.375 17.888 145.607 21.408C144.903 24.864 144.199 27.712 143.495 29.952H153.767Z" fill="#A18674"/>
<path d="M71.904 29.952V40.704H41.088V50.688H65.568V61.728C65.504 64.096 65.248 66.336 64.8 68.448C64.416 70.56 63.968 72.416 63.456 74.016C62.88 75.872 62.24 77.6 61.536 79.2H49.728C50.816 77.088 51.648 74.976 52.224 72.864C52.8 70.816 53.216 68.96 53.472 67.296C53.728 65.376 53.856 63.52 53.856 61.728H7.392V50.688H28.992V40.704H0V29.952H17.184C17.888 26.752 18.464 23.712 18.912 20.832C19.36 17.952 19.648 14.944 19.776 11.808H6.624V0.959961H33.504V9.79196C33.184 13.504 32.64 17.184 31.872 20.832C31.168 24.48 30.464 27.52 29.76 29.952H48.768C49.6 26.304 50.272 22.816 50.784 19.488C51.296 16.096 51.488 13.536 51.36 11.808H39.168V0.959961H65.088V9.79196C64.96 14.016 64.512 17.888 63.744 21.408C63.04 24.864 62.336 27.712 61.632 29.952H71.904Z" fill="#A18674"/>
<g clip-path="url(#clip0_38_191)">
<path d="M213.028 30.1258C213.028 30.1258 213.073 30.1112 213.09 30.1266C213.107 31.1833 213.107 32.2246 213.107 33.3162C213.061 33.3689 213.014 33.3712 212.931 33.3266C212.893 32.408 212.885 31.536 212.898 30.6644C212.901 30.4842 212.983 30.3053 213.028 30.1258Z" fill="#897159"/>
<path d="M158.107 30.8366C158.107 30.7869 158.148 30.7663 158.206 30.7995C158.239 31.2874 158.215 31.7423 158.191 32.1972C158.191 32.1972 158.147 32.2059 158.127 32.1951C158.107 31.7516 158.107 31.3189 158.107 30.8366Z" fill="#8C755D"/>
<path d="M158.196 32.2438C158.215 31.7424 158.239 31.2875 158.228 30.8033C158.526 27.4357 159.875 24.7288 162.999 23.1688C164.545 22.3973 166.177 22.1721 167.875 22.6045C167.99 22.6338 168.116 22.6217 168.31 22.6332C168.282 22.4475 168.261 22.3014 168.258 22.0881C168.256 21.8627 168.234 21.7044 168.213 21.5461C168.206 21.4976 168.199 21.4491 168.217 21.3545C168.229 21.2788 168.215 21.2493 168.202 21.2197C168.201 20.6432 168.201 20.0667 168.225 19.4321C168.256 19.3634 168.271 19.3476 168.268 19.3433C168.255 19.3238 168.237 19.3076 168.221 19.2902C168.373 17.738 168.738 16.2417 169.488 14.8661C170.785 12.4863 172.606 10.6729 175.305 10.0176C178.692 9.19547 181.663 10.0575 184.126 12.5412C184.564 12.9834 184.896 13.5307 185.279 14.0284C185.542 14.3711 185.721 14.3542 185.955 13.9841C187.356 11.7745 189.328 10.4102 191.909 9.92669C194.986 9.35009 197.622 10.1925 199.845 12.3716C200.083 12.6048 200.271 12.8891 200.516 13.2015C200.591 13.2898 200.632 13.3264 200.673 13.3629C200.673 13.3629 200.658 13.3698 200.667 13.3917C200.711 13.4339 200.747 13.4541 200.782 13.4743C200.817 13.4781 200.842 13.4957 200.86 13.5909C200.94 13.7376 201.015 13.8207 201.091 13.9038C201.091 13.9038 201.082 13.9075 201.081 13.9429C201.154 14.0616 201.228 14.1449 201.303 14.2282C201.303 14.2282 201.294 14.2315 201.294 14.2687C201.505 14.6756 201.715 15.0454 201.926 15.4151C201.969 15.4861 202.012 15.5572 202.052 15.7069C202.237 16.5395 202.479 17.285 202.598 18.0496C202.751 19.0248 202.847 20.0138 202.886 21.0001C202.909 21.5876 202.776 22.1812 202.696 22.9245C202.908 22.7807 203.012 22.7101 203.116 22.6394C203.979 22.5654 204.842 22.4913 205.763 22.4617C205.959 22.5053 206.097 22.5044 206.235 22.5035C208.17 22.7538 209.694 23.7006 210.869 25.2398C210.923 25.3104 210.985 25.375 211.061 25.5141C211.157 25.6323 211.235 25.6788 211.312 25.7254C211.347 25.7304 211.372 25.7492 211.389 25.8452C211.466 25.9923 211.54 26.0758 211.615 26.1594C211.615 26.1594 211.606 26.1627 211.606 26.1968C211.673 26.3159 211.74 26.401 211.806 26.4861C211.849 26.5616 211.892 26.6372 211.942 26.7752C211.976 26.8641 212.004 26.8906 212.032 26.9172C212.032 26.9172 212.047 26.953 212.042 27.0155C212.323 27.9203 212.608 28.7626 212.893 29.6048C212.893 29.6048 212.899 29.6497 212.899 29.7061C212.931 29.8171 212.964 29.8716 212.997 29.9261C213.005 29.9702 213.013 30.0143 213.025 30.0921C212.983 30.3053 212.901 30.4843 212.898 30.6644C212.885 31.5361 212.893 32.408 212.896 33.3313C212.76 34.0041 212.622 34.6253 212.439 35.2995C212.35 35.5567 212.306 35.7609 212.263 35.9651C212.263 35.9651 212.262 35.9523 212.23 35.9644C212.004 36.4734 211.81 36.9704 211.616 37.4675C211.616 37.4675 211.612 37.4574 211.587 37.4696C211.543 37.5196 211.524 37.5574 211.505 37.5952C211.505 37.5952 211.511 37.6324 211.478 37.6632C211.428 37.7272 211.411 37.7604 211.394 37.7937C210.462 39.3902 209.401 40.8646 207.748 41.8108C207.355 42.0364 207.002 42.3342 206.572 42.5779C205.376 42.8083 205.272 42.9859 205.64 44.0164C205.735 44.2834 205.792 44.564 205.892 44.8289C205.929 44.9269 206.037 44.998 206.113 45.0814C206.19 45.5173 206.268 45.9532 206.343 46.4758C206.371 46.8968 206.408 47.2307 206.428 47.5656C206.47 48.2729 206.541 48.9816 206.527 49.6882C206.512 50.3754 206.405 51.0606 206.309 51.7719C205.853 52.9246 205.426 54.0512 205.006 55.1807C204.964 55.2929 204.97 55.4228 204.954 55.5445C204.953 55.5772 204.937 55.6005 204.865 55.6229C204.81 55.6393 204.787 55.6523 204.788 55.6538C204.799 55.6774 204.814 55.6994 204.828 55.7218C204.05 57.0074 203.111 58.1431 201.829 58.9633C201.546 59.1445 201.275 59.3445 200.936 59.5656C200.297 59.9171 199.72 60.239 199.143 60.5608C199.143 60.5608 199.101 60.5689 199.052 60.5754C198.979 60.6093 198.954 60.6366 198.929 60.6639C198.929 60.6639 198.887 60.6759 198.83 60.675C198.717 60.7077 198.662 60.7413 198.606 60.7749C198.606 60.7749 198.562 60.783 198.507 60.7818C198.396 60.8116 198.341 60.8427 198.286 60.8737C198.073 60.943 197.86 61.0123 197.582 61.1001C197.486 61.1455 197.456 61.1725 197.426 61.1994C197.382 61.2107 197.339 61.222 197.239 61.2017C196.419 61.2575 195.654 61.3411 194.892 61.4399C194.834 61.4473 194.79 61.5623 194.74 61.6273C194.691 61.6343 194.643 61.6414 194.527 61.6086C193.926 61.5249 193.392 61.4763 192.858 61.4455C192.809 61.4426 192.753 61.5539 192.7 61.6122C192.476 61.5879 192.251 61.5636 191.976 61.4882C191.525 61.3499 191.127 61.2485 190.723 61.1804C190.451 61.1345 190.171 61.1358 189.895 61.116C189.847 61.1125 189.8 61.109 189.712 61.0546C189.278 60.8955 188.886 60.7875 188.493 60.6794C188.493 60.6794 188.505 60.6769 188.484 60.6479C188.385 60.6021 188.308 60.5853 188.23 60.5685C187.666 60.3489 187.033 60.2276 186.554 59.8878C185.743 59.3114 185.1 59.7161 184.366 59.997C183.282 60.4117 182.165 60.7387 181.061 61.1003C180.928 61.1439 180.79 61.1709 180.567 61.2059C180.292 61.2744 180.104 61.3425 179.916 61.4106C179.869 61.4202 179.823 61.4298 179.714 61.4022C179.219 61.3866 178.785 61.4016 178.354 61.4379C178.297 61.4426 178.249 61.556 178.198 61.6191C177.295 61.5922 176.392 61.5654 175.436 61.4878C174.799 61.2856 174.214 61.1347 173.629 60.9827C173.105 60.8463 172.581 60.7086 172.057 60.5715C172.057 60.5715 172.068 60.5704 172.055 60.5388C171.688 60.351 171.334 60.1948 170.979 60.0386C170.979 60.0386 170.991 60.0341 170.977 60.0078C170.899 59.9626 170.834 59.9437 170.769 59.9247C170.769 59.9247 170.779 59.9217 170.764 59.8963C170.687 59.8512 170.624 59.8316 170.561 59.812C170.561 59.812 170.567 59.8079 170.565 59.7793C170.494 59.7325 170.425 59.7143 170.355 59.6962C167.356 57.7779 165.428 55.0992 164.786 51.5853C164.286 48.8499 164.633 46.1698 165.66 43.5855C165.78 43.2828 165.705 43.1353 165.439 42.9848C164.657 42.5419 163.818 42.1635 163.125 41.6057C160.558 39.54 158.823 36.9424 158.328 33.6183C158.262 33.1791 158.242 32.7331 158.196 32.2438ZM187.26 15.0001C187.213 15.114 187.167 15.228 187.122 15.3783C187.116 15.4053 187.1 15.4213 186.991 15.4396C186.638 16.0373 186.284 16.635 185.848 17.2504C185.341 17.5361 185.05 17.2877 184.828 16.8451C184.218 15.6261 183.538 14.4547 182.504 13.5333C181.562 12.6926 180.505 12.0556 179.251 11.6698C179.197 11.6302 179.148 11.5692 179.088 11.5544C178.004 11.2881 176.918 11.2684 175.847 11.6038C175.543 11.6988 175.269 11.8878 174.925 12.078C173.73 12.6346 172.617 13.3052 171.707 14.3771C171.689 14.4424 171.672 14.5077 171.653 14.5624C171.653 14.5624 171.662 14.568 171.582 14.5694C171.533 14.6762 171.483 14.7829 171.43 14.8812C171.43 14.8812 171.439 14.8847 171.361 14.8909C171.314 14.9985 171.267 15.106 171.217 15.2044C171.217 15.2044 171.226 15.2084 171.147 15.2133C171.066 15.3938 170.984 15.5743 170.903 15.7445C170.903 15.7445 170.911 15.7509 170.831 15.7514C170.603 16.3275 170.374 16.9037 170.146 17.5239C170.146 17.5239 170.137 17.5669 170.081 17.6062C170.067 17.6712 170.052 17.7363 170.035 17.8481C170.035 17.8481 170.02 17.8924 169.969 17.9319C169.988 18.0245 170.008 18.117 170.024 18.272C169.991 18.3233 169.958 18.3745 169.873 18.4577C169.894 18.5207 169.916 18.5836 169.94 18.734C169.898 18.9897 169.857 19.2454 169.751 19.508C169.742 19.5801 169.733 19.6523 169.719 19.8236C169.72 20.3942 169.722 20.9648 169.664 21.5766C169.719 21.7103 169.773 21.8439 169.837 22.058C169.827 22.138 169.816 22.2181 169.772 22.3156C169.765 22.3267 169.751 22.344 169.754 22.348C169.769 22.3674 169.788 22.3832 169.823 22.4691C169.861 22.5525 169.899 22.6358 169.88 22.7564C169.92 22.853 169.961 22.9497 170.025 23.1001C170.024 23.1196 170.022 23.1391 169.961 23.2224C169.965 23.567 169.969 23.9116 169.977 24.2745C169.977 24.2745 169.971 24.2921 169.89 24.2566C169.469 24.5569 169.037 24.6378 168.57 24.3484C168.505 24.3077 168.395 24.3383 168.28 24.2858C168.22 24.3013 168.16 24.3168 168.038 24.3394C167.984 24.3126 167.93 24.2859 167.843 24.1892C167.744 24.1736 167.644 24.158 167.556 24.1481C167.556 24.1481 167.548 24.1574 167.514 24.079C166.684 24.0484 165.854 23.9986 165.024 24.0018C164.834 24.0025 164.644 24.1853 164.408 24.3221C164.351 24.3311 164.293 24.3401 164.192 24.2878C163.882 24.4454 163.573 24.6031 163.212 24.7824C163.168 24.8168 163.124 24.8511 162.997 24.8805C162.91 24.9559 162.823 25.0314 162.731 25.0968C162.731 25.0968 162.741 25.1011 162.658 25.0946C162.541 25.2104 162.424 25.3262 162.275 25.5004C162.141 25.6151 162.007 25.7298 161.806 25.85C161.756 25.912 161.705 25.9739 161.591 26.0769C161.299 26.5025 161.006 26.9281 160.646 27.385C160.626 27.4541 160.607 27.5233 160.59 27.6581C160.55 27.7338 160.51 27.8094 160.393 27.8969C160.202 28.4355 159.982 28.966 159.834 29.516C159.763 29.7785 159.829 30.0778 159.844 30.4375C159.799 30.5552 159.753 30.673 159.647 30.8545C159.668 31.3325 159.689 31.8104 159.724 32.3726C159.727 32.4865 159.73 32.6004 159.68 32.7484C159.727 32.8109 159.774 32.8733 159.845 33.0221C159.843 33.1704 159.842 33.3188 159.78 33.514C159.808 33.7366 159.791 33.9768 159.871 34.1783C160.066 34.6663 160.305 35.1364 160.57 35.6709C161.322 37.533 162.479 39.1029 164.108 40.2705C165.027 40.9295 166.054 41.4376 167.053 42.0868C167.118 42.116 167.184 42.1451 167.24 42.1787C167.24 42.1787 167.245 42.1701 167.24 42.2596C167.4 42.7487 167.272 43.1918 167.063 43.6408C166.987 43.8054 167.032 44.0267 167.014 44.2855C167 44.3015 166.986 44.3176 166.901 44.3577C166.85 44.4406 166.798 44.5236 166.748 44.5997C166.748 44.5997 166.758 44.5901 166.728 44.6794C166.718 44.7415 166.709 44.8035 166.641 44.9188C166.592 45.2971 166.543 45.6754 166.499 46.124C166.459 46.2066 166.42 46.2893 166.315 46.42C166.099 47.0732 165.913 47.7285 166.183 48.4962C166.176 48.5766 166.169 48.657 166.08 48.7546C165.908 49.0549 165.782 49.3507 166.179 49.6674C166.175 49.7153 166.171 49.7633 166.101 49.8717C166.019 50.5224 166.003 51.1632 166.387 51.8313C166.696 52.9697 167.142 54.0411 167.814 55.0223C170.013 58.2332 173.091 59.8448 176.933 60.0337C179.666 60.168 182.213 59.4021 184.649 58.2463C185.406 57.887 186.026 57.8922 186.789 58.2783C189.759 59.7806 192.896 60.4671 196.218 59.8178C202.692 58.5522 206.159 52.9184 204.86 46.6964C204.614 45.5205 204.191 44.3816 203.84 43.2282C203.674 42.6786 203.807 42.2807 204.291 42.0016C204.476 41.895 204.672 41.8077 204.864 41.7152C208.546 39.9462 210.83 37.1292 211.397 33.0155C211.675 31 211.466 29.0691 210.422 27.2856C209.615 25.9094 208.491 24.8903 206.967 24.2479C206.796 24.1701 206.632 24.0579 206.453 24.0198C204.797 23.6685 203.237 24.0437 201.651 24.6764C201.599 24.6457 201.548 24.615 201.496 24.5048C201.418 24.4519 201.341 24.399 201.201 24.2947C201.167 24.0539 201.062 23.7976 201.111 23.5747C201.439 22.0689 201.575 20.5765 201.301 19.0308C200.894 16.7358 199.94 14.7657 198.177 13.2285C197.34 12.499 196.38 11.9689 195.257 11.6698C194.869 11.629 194.481 11.5882 194.022 11.5609C193.974 11.5535 193.926 11.5461 193.859 11.4567C193.337 11.1899 192.851 11.397 192.279 11.5649C192.058 11.62 191.83 11.655 191.619 11.7333C190.176 12.2668 188.91 13.0649 187.821 14.2454C187.765 14.3522 187.708 14.4591 187.642 14.6138C187.628 14.6466 187.604 14.6661 187.488 14.6749C187.437 14.7834 187.386 14.8919 187.333 14.9908C187.333 14.9908 187.342 14.9948 187.26 15.0001Z" fill="#937E68"/>
<path d="M206.339 51.7466C206.405 51.0605 206.512 50.3753 206.527 49.6881C206.541 48.9815 206.47 48.2728 206.428 47.5655C206.408 47.2306 206.371 46.8968 206.343 46.5125C206.404 46.5858 206.503 46.7052 206.516 46.833C206.669 48.445 206.859 50.0589 206.421 51.7054C206.384 51.7462 206.339 51.7466 206.339 51.7466Z" fill="#897159"/>
<path d="M206.309 51.7718C206.339 51.7466 206.384 51.7462 206.407 51.7461C206.208 53.0904 205.715 54.332 204.983 55.519C204.97 55.4227 204.964 55.2927 205.006 55.1806C205.426 54.0511 205.853 52.9245 206.309 51.7718Z" fill="#8C755D"/>
<path d="M206.112 45.0397C206.037 44.9979 205.929 44.9268 205.892 44.8288C205.792 44.5639 205.735 44.2833 205.64 44.0163C205.272 42.9858 205.376 42.8082 206.535 42.585C206.543 42.6254 206.532 42.6408 206.517 42.6496C206.201 42.8376 205.711 42.9624 205.615 43.2294C205.515 43.5076 205.797 43.9218 205.906 44.2783C205.979 44.5167 206.043 44.7581 206.112 45.0397Z" fill="#8C755D"/>
<path d="M172.081 60.6012C172.581 60.7085 173.105 60.8462 173.629 60.9826C174.214 61.1346 174.799 61.2855 175.392 61.4769C174.302 61.2216 173.204 60.9263 172.081 60.6012Z" fill="#897159"/>
<path d="M194.788 61.6322C194.79 61.5622 194.834 61.4473 194.892 61.4398C195.654 61.3411 196.418 61.2575 197.205 61.2031C196.43 61.3698 195.633 61.5035 194.788 61.6322Z" fill="#876F56"/>
<path d="M189.927 61.1413C190.171 61.1357 190.451 61.1344 190.723 61.1803C191.127 61.2484 191.525 61.3498 191.935 61.4771C191.282 61.4004 190.62 61.2835 189.927 61.1413Z" fill="#876F56"/>
<path d="M199.183 60.5667C199.72 60.2389 200.297 59.9171 200.914 59.5951C200.376 59.9208 199.799 60.2468 199.183 60.5667Z" fill="#897159"/>
<path d="M211.645 37.4455C211.81 36.9704 212.004 36.4734 212.236 35.9657C212.074 36.4445 211.875 36.934 211.645 37.4455Z" fill="#876F56"/>
<path d="M178.244 61.6237C178.249 61.556 178.297 61.4426 178.354 61.4379C178.785 61.4016 179.219 61.3866 179.678 61.3981C179.234 61.4969 178.762 61.5626 178.244 61.6237Z" fill="#876F56"/>
<path d="M192.75 61.6216C192.753 61.5538 192.809 61.4425 192.858 61.4454C193.392 61.4762 193.926 61.5248 194.491 61.6007C193.948 61.6322 193.373 61.6317 192.75 61.6216Z" fill="#876F56"/>
<path d="M188.517 60.7101C188.886 60.7875 189.278 60.8955 189.679 61.0407C189.305 60.9655 188.923 60.8531 188.517 60.7101Z" fill="#876F56"/>
<path d="M170.999 60.0697C171.334 60.1948 171.688 60.351 172.054 60.544C171.717 60.4207 171.368 60.2608 170.999 60.0697Z" fill="#897159"/>
<path d="M179.956 61.4145C180.104 61.3425 180.292 61.2744 180.525 61.2074C180.378 61.2785 180.187 61.3485 179.956 61.4145Z" fill="#876F56"/>
<path d="M212.296 35.9442C212.306 35.7609 212.35 35.5567 212.423 35.3287C212.412 35.511 212.371 35.7172 212.296 35.9442Z" fill="#876F56"/>
<path d="M170.38 59.7154C170.425 59.7144 170.494 59.7325 170.564 59.7828C170.511 59.7882 170.457 59.7614 170.38 59.7154Z" fill="#897159"/>
<path d="M170.582 59.8357C170.624 59.8316 170.687 59.8512 170.764 59.9013C170.721 59.9077 170.662 59.8836 170.582 59.8357Z" fill="#897159"/>
<path d="M170.788 59.952C170.834 59.9437 170.899 59.9626 170.977 60.014C170.93 60.024 170.868 60.0016 170.788 59.952Z" fill="#897159"/>
<path d="M188.253 60.6012C188.308 60.5853 188.385 60.6021 188.484 60.6541C188.428 60.6708 188.352 60.6523 188.253 60.6012Z" fill="#876F56"/>
<path d="M198.64 60.7831C198.661 60.7412 198.717 60.7076 198.808 60.6744C198.787 60.7137 198.731 60.7526 198.64 60.7831Z" fill="#897159"/>
<path d="M198.32 60.8788C198.341 60.8426 198.396 60.8116 198.485 60.7811C198.464 60.8158 198.409 60.8499 198.32 60.8788Z" fill="#897159"/>
<path d="M211.533 37.5794C211.524 37.5573 211.543 37.5195 211.592 37.4691C211.602 37.4922 211.581 37.5279 211.533 37.5794Z" fill="#876F56"/>
<path d="M197.458 61.1972C197.456 61.1724 197.486 61.1455 197.547 61.1127C197.548 61.1362 197.519 61.1656 197.458 61.1972Z" fill="#876F56"/>
<path d="M211.422 37.7819C211.411 37.7604 211.428 37.7271 211.47 37.6802C211.48 37.7011 211.464 37.7356 211.422 37.7819Z" fill="#876F56"/>
<path d="M198.959 60.6638C198.954 60.6366 198.979 60.6093 199.031 60.5742C199.035 60.5989 199.012 60.6314 198.959 60.6638Z" fill="#897159"/>
<path d="M204.837 55.6976C204.814 55.6993 204.799 55.6773 204.788 55.6537C204.787 55.6523 204.81 55.6392 204.843 55.628C204.865 55.6245 204.847 55.6735 204.837 55.6976Z" fill="#8C755D"/>
<path d="M203.074 22.6168C203.012 22.71 202.908 22.7806 202.696 22.9244C202.775 22.1811 202.909 21.5875 202.886 21C202.847 20.0137 202.751 19.0247 202.598 18.0495C202.478 17.2849 202.237 16.5394 202.054 15.7383C202.642 16.8211 202.903 18.0452 202.99 19.2943C203.067 20.3899 203.022 21.4939 203.074 22.6168Z" fill="#937D67"/>
<path d="M212.912 29.5744C212.608 28.7625 212.323 27.9203 212.04 27.0348C212.339 27.8424 212.635 28.6932 212.912 29.5744Z" fill="#897159"/>
<path d="M201.926 15.3765C201.715 15.0453 201.505 14.6756 201.296 14.2643C201.507 14.5945 201.716 14.9663 201.926 15.3765Z" fill="#876F56"/>
<path d="M206.205 22.4813C206.097 22.5044 205.959 22.5053 205.812 22.4721C205.927 22.4451 206.051 22.4521 206.205 22.4813Z" fill="#937D67"/>
<path d="M201.294 14.1954C201.228 14.1449 201.154 14.0615 201.082 13.9381C201.152 13.9862 201.219 14.0744 201.294 14.1954Z" fill="#876F56"/>
<path d="M211.605 26.127C211.54 26.0758 211.466 25.9923 211.392 25.8688C211.46 25.9174 211.528 26.0061 211.605 26.127Z" fill="#897159"/>
<path d="M211.804 26.4528C211.74 26.401 211.673 26.3159 211.608 26.1925C211.674 26.2427 211.738 26.3312 211.804 26.4528Z" fill="#897159"/>
<path d="M201.081 13.8714C201.015 13.8207 200.94 13.7376 200.865 13.6143C200.934 13.6624 201.003 13.7507 201.081 13.8714Z" fill="#876F56"/>
<path d="M168.208 21.5898C168.234 21.7043 168.256 21.8626 168.251 22.0468C168.218 21.9264 168.21 21.78 168.208 21.5898Z" fill="#876F56"/>
<path d="M211.3 25.6932C211.235 25.6788 211.157 25.6322 211.074 25.5479C211.142 25.5604 211.214 25.6107 211.3 25.6932Z" fill="#897159"/>
<path d="M200.667 13.3342C200.632 13.3264 200.591 13.2898 200.547 13.2238C200.582 13.2313 200.622 13.2685 200.667 13.3342Z" fill="#876F56"/>
<path d="M213 29.8916C212.964 29.8716 212.931 29.8171 212.898 29.7288C212.933 29.7491 212.968 29.8031 213 29.8916Z" fill="#897159"/>
<path d="M168.197 21.2469C168.215 21.2492 168.229 21.2788 168.224 21.3181C168.202 21.3101 168.197 21.2921 168.197 21.2469Z" fill="#876F56"/>
<path d="M168.215 19.3149C168.237 19.3075 168.255 19.3238 168.268 19.3433C168.271 19.3476 168.256 19.3634 168.233 19.3821C168.217 19.3903 168.208 19.3397 168.215 19.3149Z" fill="#876F56"/>
<path d="M212.031 26.8863C212.004 26.8906 211.976 26.864 211.941 26.8086C211.965 26.8049 211.997 26.8302 212.031 26.8863Z" fill="#897159"/>
<path d="M200.769 13.4459C200.747 13.454 200.711 13.4338 200.665 13.3841C200.688 13.3755 200.722 13.3965 200.769 13.4459Z" fill="#876F56"/>
<path d="M166.166 49.8112C166.171 49.7633 166.175 49.7154 166.177 49.5847C166.171 49.2471 166.166 48.9923 166.161 48.7374C166.169 48.657 166.176 48.5766 166.187 48.4142C166.254 47.6788 166.317 47.0254 166.38 46.372C166.42 46.2893 166.459 46.2066 166.518 46.0555C166.627 45.6138 166.717 45.2405 166.828 44.8385C166.889 44.6511 166.93 44.4924 166.972 44.3336C166.986 44.3176 167 44.3015 167.036 44.2207C167.191 43.8121 167.331 43.4706 167.456 43.1236C167.585 42.7656 167.56 42.4335 167.245 42.1701C167.245 42.1701 167.24 42.1787 167.226 42.1475C167.152 42.0821 167.092 42.0479 167.033 42.0137C166.054 41.4376 165.027 40.9295 164.108 40.2705C162.479 39.103 161.322 37.533 160.535 35.6013C160.28 34.8435 160.06 34.1553 159.84 33.4672C159.842 33.3188 159.843 33.1704 159.839 32.9462C159.799 32.8183 159.766 32.7663 159.733 32.7143C159.73 32.6004 159.727 32.4865 159.722 32.2811C159.716 31.7233 159.712 31.257 159.708 30.7908C159.753 30.673 159.798 30.5552 159.852 30.3597C160.063 29.4829 160.266 28.684 160.47 27.8851C160.51 27.8094 160.55 27.7338 160.618 27.6051C160.668 27.486 160.691 27.4199 160.714 27.3537C161.006 26.9281 161.299 26.5025 161.653 26.0534C161.768 25.9681 161.82 25.9063 161.873 25.8446C162.007 25.7298 162.141 25.6151 162.323 25.4573C162.495 25.3098 162.618 25.2055 162.741 25.1012C162.741 25.1012 162.731 25.0968 162.767 25.0923C162.895 25.0204 162.988 24.9529 163.08 24.8855C163.124 24.8511 163.168 24.8168 163.277 24.7712C163.64 24.623 163.938 24.486 164.236 24.3491C164.293 24.3401 164.351 24.3311 164.476 24.293C165.537 24.005 166.541 24.0482 167.548 24.1574C167.548 24.1574 167.556 24.1481 167.568 24.1785C167.679 24.2257 167.778 24.2424 167.877 24.2591C167.93 24.2859 167.984 24.3126 168.089 24.3445C168.141 24.3497 168.186 24.3472 168.215 24.3726C168.459 24.4817 168.67 24.5722 168.886 24.6475C169.335 24.8035 169.726 24.7672 169.971 24.2921C169.971 24.2921 169.977 24.2745 170.008 24.2453C170.033 23.8636 170.027 23.5111 170.021 23.1586C170.022 23.1391 170.024 23.1196 170.016 23.0392C169.983 22.892 169.961 22.8056 169.938 22.7192C169.899 22.6359 169.861 22.5525 169.819 22.4092C169.815 22.3494 169.806 22.2982 169.806 22.2982C169.816 22.2181 169.827 22.1381 169.837 21.9776C169.799 21.7766 169.761 21.656 169.724 21.5354C169.722 20.9648 169.72 20.3942 169.751 19.7583C169.795 19.6291 169.805 19.5651 169.816 19.5011C169.857 19.2454 169.898 18.9897 169.948 18.6533C169.946 18.5237 169.935 18.4748 169.925 18.4258C169.958 18.3746 169.991 18.3233 170.034 18.2016C170.036 18.0516 170.028 17.972 170.02 17.8924C170.02 17.8924 170.035 17.8481 170.069 17.808C170.114 17.7008 170.125 17.6339 170.137 17.5669C170.137 17.5669 170.146 17.5239 170.179 17.4821C170.445 16.8771 170.678 16.314 170.911 15.7509C170.911 15.7509 170.903 15.7445 170.931 15.7285C171.048 15.5445 171.137 15.3765 171.226 15.2085C171.226 15.2085 171.217 15.2044 171.246 15.1892C171.329 15.0775 171.384 14.9811 171.439 14.8847C171.439 14.8847 171.43 14.8812 171.459 14.8663C171.546 14.7569 171.604 14.6625 171.662 14.568C171.662 14.568 171.653 14.5625 171.682 14.5501C171.731 14.4739 171.751 14.41 171.77 14.3462C172.617 13.3052 173.73 12.6346 174.995 12.0434C176.442 11.5298 177.84 11.4066 179.268 11.748C180.505 12.0556 181.562 12.6926 182.504 13.5333C183.538 14.4547 184.218 15.6261 184.828 16.8451C185.05 17.2877 185.341 17.5361 185.927 17.247C186.361 16.6379 186.717 16.0321 187.072 15.4263C187.1 15.4213 187.116 15.4053 187.147 15.337C187.229 15.1954 187.285 15.0951 187.342 14.9948C187.342 14.9948 187.333 14.9908 187.362 14.9767C187.451 14.8658 187.51 14.7691 187.569 14.6724C187.604 14.6662 187.628 14.6466 187.674 14.5694C187.772 14.4318 187.838 14.3386 187.904 14.2453C188.91 13.0649 190.176 12.2668 191.619 11.7333C191.83 11.655 192.058 11.62 192.347 11.6006C192.902 11.6037 193.39 11.5712 193.878 11.5387C193.926 11.5461 193.974 11.5535 194.098 11.5658C194.541 11.6295 194.907 11.6884 195.273 11.7473C196.38 11.9689 197.34 12.499 198.177 13.2285C199.94 14.7657 200.894 16.7358 201.301 19.0309C201.575 20.5765 201.439 22.0689 201.111 23.5747C201.062 23.7976 201.167 24.0539 201.243 24.3534C201.356 24.4694 201.426 24.5269 201.496 24.5843C201.548 24.615 201.599 24.6457 201.714 24.6966C201.949 24.6944 202.136 24.7073 202.291 24.6439C203.821 24.0193 205.384 23.9213 206.982 24.324C208.491 24.8904 209.615 25.9095 210.422 27.2856C211.466 29.0691 211.675 31.0001 211.397 33.0155C210.83 37.1292 208.546 39.9462 204.864 41.7152C204.672 41.8078 204.476 41.895 204.291 42.0016C203.807 42.2808 203.674 42.6787 203.84 43.2283C204.191 44.3816 204.614 45.5206 204.86 46.6964C206.159 52.9184 202.692 58.5522 196.218 59.8178C192.896 60.4671 189.759 59.7806 186.789 58.2783C186.026 57.8922 185.406 57.887 184.649 58.2463C182.213 59.4021 179.666 60.168 176.933 60.0337C173.091 59.8448 170.013 58.2332 167.814 55.0223C167.142 54.0411 166.696 52.9697 166.397 51.7557C166.326 51.0572 166.246 50.4342 166.166 49.8112ZM180.572 16.8011C180.572 16.8011 180.586 16.7972 180.571 16.7371C180.536 16.7178 180.502 16.6986 180.465 16.6936C180.465 16.6936 180.479 16.6898 180.464 16.6296C180.429 16.6104 180.394 16.5911 180.365 16.5838C180.365 16.5838 180.374 16.5734 180.35 16.5107C180.28 16.4565 180.21 16.4024 180.111 16.2956C180.045 16.2536 179.978 16.2116 179.875 16.1158C179.746 16.0401 179.617 15.9644 179.421 15.8427C177.807 15.0516 176.198 15.3217 174.929 16.5792C173.888 17.6108 173.483 18.8834 173.33 20.3145C173.087 22.5809 173.469 24.673 174.807 26.5395C175.41 27.3815 176.115 28.1334 177.203 28.5095C178.163 28.9621 179.112 28.9902 180.088 28.429C180.088 28.429 180.131 28.416 180.19 28.4155C180.214 28.3841 180.237 28.3528 180.33 28.3227C180.444 28.2554 180.558 28.188 180.742 28.096C181.013 27.8138 181.284 27.5317 181.605 27.2195C181.617 27.1641 181.63 27.1087 181.71 27.0211C181.933 26.5212 182.156 26.0214 182.391 25.4783C182.391 25.4783 182.392 25.4337 182.458 25.39C182.536 25.0397 182.615 24.6895 182.722 24.2774C182.714 24.1195 182.706 23.9617 182.711 23.7256C182.716 23.6462 182.72 23.5668 182.784 23.456C182.793 23.3919 182.802 23.3277 182.832 23.1649C182.79 22.5527 182.749 21.9405 182.716 21.262C182.682 21.2099 182.648 21.1577 182.608 21.0367C182.605 20.9906 182.602 20.9445 182.635 20.8475C182.589 20.7151 182.544 20.5826 182.499 20.4049C182.499 20.4049 182.491 20.3603 182.52 20.3113C182.477 20.2136 182.434 20.116 182.392 19.9737C182.392 19.9737 182.382 19.9302 182.399 19.8453C182.219 19.393 182.039 18.9406 181.858 18.4341C181.827 18.3932 181.795 18.3522 181.747 18.2442C181.679 18.1546 181.611 18.065 181.537 17.9868C181.537 17.9868 181.55 17.9877 181.538 17.9227C181.5 17.8706 181.461 17.8186 181.416 17.7201C181.403 17.688 181.38 17.6694 181.32 17.6049C181.286 17.5842 181.251 17.5635 181.222 17.5583C181.222 17.5583 181.236 17.5493 181.229 17.4829C181.186 17.4333 181.144 17.3838 181.085 17.2795C181.031 17.2277 180.977 17.176 180.893 17.0636C180.825 17.0061 180.758 16.9487 180.681 16.9C180.681 16.9 180.693 16.905 180.678 16.8449C180.644 16.8256 180.609 16.8062 180.572 16.8011ZM171.756 31.4289C171.756 31.4289 171.765 31.4228 171.752 31.3536C171.684 31.2956 171.615 31.2376 171.551 31.105C171.484 31.0013 171.414 30.8995 171.351 30.7936C170.467 29.3151 169.272 28.1877 167.577 27.7572C166.344 27.4439 165.21 27.7092 164.358 28.7623C163.329 30.0348 163.227 31.4996 163.529 33.0158C163.89 34.8322 164.899 36.3023 166.291 37.4597C167.915 38.8097 170.439 39.29 172.142 36.7778C172.25 36.5371 172.358 36.2964 172.494 36.0034C172.494 35.9836 172.494 35.9637 172.515 35.8662C172.508 35.7862 172.501 35.7061 172.508 35.584C172.508 35.584 172.51 35.5397 172.583 35.4989C172.866 34.2295 172.614 33.0513 171.976 31.8992C171.976 31.8992 171.962 31.8613 171.961 31.7991C171.93 31.7727 171.899 31.7462 171.871 31.6822C171.871 31.6822 171.858 31.6469 171.864 31.5805C171.829 31.5265 171.794 31.4724 171.756 31.4289ZM197.106 17.6711C197.106 17.6711 197.115 17.6664 197.1 17.6007C197.032 17.5127 196.965 17.4247 196.893 17.3472C196.893 17.3472 196.903 17.3418 196.886 17.2758C196.817 17.1869 196.748 17.0981 196.67 16.9638C196.655 16.933 196.631 16.9152 196.567 16.8442C196.354 16.6468 196.141 16.4494 195.908 16.2068C195.884 16.1803 195.855 16.1669 195.781 16.112C195.649 16.0321 195.517 15.9523 195.32 15.8259C194.177 15.2182 193.006 15.2405 191.89 15.8259C190.398 16.6092 189.462 17.9004 188.933 19.4789C188.394 21.0878 188.227 22.746 188.508 24.4231C188.836 26.3837 189.553 28.0808 191.778 28.7236C192.649 28.9279 193.484 28.9137 194.268 28.3227C194.268 28.3227 194.309 28.3118 194.37 28.3128C194.392 28.2795 194.414 28.2463 194.502 28.1828C194.975 27.7894 195.448 27.3959 195.987 26.9901C196.08 26.864 196.173 26.738 196.256 26.5991C196.256 26.5991 196.259 26.6148 196.322 26.5778C197.13 25.452 197.7 24.2295 197.868 22.7507C197.886 21.8817 198.001 21.0004 197.893 20.1473C197.799 19.4017 197.455 18.6877 197.226 17.9233C197.226 17.9233 197.211 17.8894 197.217 17.8229C197.181 17.7691 197.145 17.7154 197.106 17.6711ZM204.696 37.666C204.782 37.5953 204.868 37.5247 205.013 37.4352C205.101 37.3475 205.189 37.2599 205.343 37.1375C205.511 36.9594 205.679 36.7812 205.903 36.5734C205.978 36.4755 206.053 36.3776 206.185 36.2404C206.248 36.1457 206.311 36.051 206.419 35.9343C206.443 35.9089 206.456 35.8787 206.515 35.8013C206.852 35.061 207.188 34.3207 207.559 33.5022C207.786 32.6146 207.961 31.7359 207.857 30.7958C207.707 29.441 206.446 27.9341 205.33 27.7125C204.041 27.4564 202.892 27.8893 201.887 28.6545C200.002 30.09 198.827 31.9871 198.63 34.3679C198.508 35.8428 198.973 37.1519 200.361 38.0407C200.416 38.0656 200.472 38.0905 200.535 38.1076C200.535 38.1076 200.524 38.1078 200.572 38.1664C201.745 38.7213 202.891 38.7335 204.043 37.9962C204.043 37.9962 204.084 37.9864 204.146 37.9886C204.17 37.9551 204.193 37.9216 204.259 37.8876C204.259 37.8876 204.3 37.8734 204.368 37.8756C204.457 37.8092 204.547 37.7427 204.626 37.6743C204.626 37.6743 204.631 37.6835 204.696 37.666ZM198.938 42.1093C198.9 42.0585 198.861 42.0077 198.816 41.9087C198.803 41.8755 198.779 41.8554 198.72 41.784C198.649 41.6964 198.578 41.6088 198.504 41.5316C198.504 41.5316 198.514 41.5262 198.494 41.4633C198.425 41.3793 198.356 41.2954 198.264 41.1427C197.455 40.1994 196.709 39.192 195.824 38.3271C194.304 36.8415 192.773 35.3479 191.107 34.0351C188.988 32.3662 186.507 31.8721 183.848 32.3938C181.69 32.8172 179.945 34.0096 178.416 35.5034C176.718 37.163 175.045 38.8592 173.487 40.6491C171.848 42.5326 170.587 44.6756 170.105 47.1728C169.595 49.8102 169.963 52.2057 172.039 54.1802C172.849 54.9504 173.79 55.3821 174.839 55.8522C174.894 55.8601 174.949 55.868 175.028 55.8641C175.028 55.8641 175.02 55.8394 175.059 55.9174C175.287 55.9702 175.515 56.023 175.8 56.1238C175.947 56.1456 176.094 56.1674 176.311 56.2496C177.156 56.2208 178 56.1919 178.916 56.173C178.963 56.1632 179.01 56.1534 179.144 56.1517C179.762 55.9789 180.38 55.806 181.067 55.625C181.148 55.5858 181.23 55.5466 181.38 55.5246C181.435 55.4855 181.491 55.4464 181.59 55.4087C181.59 55.4087 181.633 55.3981 181.699 55.4127C181.752 55.3794 181.805 55.3461 181.928 55.3026C182.009 55.2619 182.09 55.2212 182.231 55.1808C182.251 55.148 182.272 55.1151 182.364 55.0616C183.14 54.6224 183.932 54.2093 184.686 53.7358C185.287 53.3577 185.859 53.353 186.42 53.7431C187.662 54.6071 189.04 55.1874 190.509 55.764C191.059 55.8904 191.61 56.0167 192.244 56.1688C193.444 56.3745 194.635 56.359 195.892 56.0282C196.123 55.9287 196.354 55.8293 196.629 55.7316C196.629 55.7316 196.672 55.7222 196.751 55.7327C196.98 55.6258 197.209 55.5189 197.43 55.4146C197.43 55.4146 197.436 55.4219 197.505 55.4104C197.593 55.338 197.681 55.2655 197.813 55.1926C197.813 55.1926 197.855 55.1794 197.915 55.1791C197.939 55.1477 197.962 55.1163 198.06 55.0811C198.389 54.8441 198.718 54.6072 199.112 54.3351C199.283 54.157 199.453 53.9789 199.677 53.7707C199.751 53.6739 199.825 53.5771 199.953 53.4387C200.015 53.3433 200.076 53.2479 200.194 53.1077C200.38 52.7613 200.566 52.4149 200.794 52.0073C200.888 51.6697 200.982 51.3321 201.084 50.9513C201.084 50.9513 201.083 50.9074 201.151 50.8685C201.159 50.7682 201.167 50.6679 201.188 50.5228C201.188 50.5228 201.19 50.476 201.26 50.4323C201.305 50.1182 201.349 49.8042 201.413 49.3945C201.407 49.1036 201.401 48.8126 201.405 48.4268C201.247 46.5938 200.665 44.9042 199.69 43.3576C199.69 43.3576 199.699 43.3512 199.684 43.2805C199.579 43.1233 199.474 42.9661 199.365 42.818C199.365 42.818 199.375 42.819 199.356 42.7609C199.323 42.7381 199.29 42.7154 199.256 42.6342C199.229 42.5872 199.201 42.5402 199.15 42.4282C199.081 42.3393 199.012 42.2503 198.938 42.1726C198.938 42.1726 198.95 42.1732 198.938 42.1093Z" fill="#FEFEFE"/>
<path d="M206.975 24.2858C205.384 23.9212 203.821 24.0192 202.291 24.6438C202.136 24.7072 201.949 24.6943 201.745 24.6953C203.237 24.0437 204.797 23.6684 206.453 24.0198C206.632 24.0578 206.796 24.17 206.975 24.2858Z" fill="#876F56"/>
<path d="M179.259 11.7088C177.84 11.4065 176.442 11.5297 175.023 12.0212C175.269 11.8877 175.543 11.6988 175.847 11.6037C176.918 11.2684 178.004 11.2881 179.088 11.5543C179.148 11.5691 179.197 11.6302 179.259 11.7088Z" fill="#897159"/>
<path d="M167.531 24.1181C166.541 24.0482 165.537 24.0049 164.498 24.274C164.643 24.1852 164.834 24.0025 165.024 24.0017C165.854 23.9985 166.684 24.0484 167.531 24.1181Z" fill="#876F56"/>
<path d="M160.431 27.891C160.266 28.684 160.063 29.4829 159.846 30.3212C159.829 30.0779 159.763 29.7785 159.834 29.516C159.982 28.9661 160.202 28.4355 160.431 27.891Z" fill="#876F56"/>
<path d="M167.243 42.2148C167.56 42.4334 167.585 42.7656 167.456 43.1236C167.331 43.4705 167.191 43.812 167.04 44.189C167.032 44.0267 166.987 43.8053 167.063 43.6408C167.272 43.1918 167.4 42.7487 167.243 42.2148Z" fill="#8E7760"/>
<path d="M166.347 46.396C166.317 47.0254 166.254 47.6788 166.18 48.3743C165.912 47.7285 166.098 47.0732 166.347 46.396Z" fill="#8C755D"/>
<path d="M159.81 33.4905C160.06 34.1552 160.28 34.8434 160.513 35.5725C160.305 35.1363 160.066 34.6663 159.871 34.1782C159.791 33.9767 159.808 33.7365 159.81 33.4905Z" fill="#8C755D"/>
<path d="M166.134 49.8414C166.246 50.4341 166.326 51.0571 166.392 51.7132C166.003 51.1632 166.019 50.5224 166.134 49.8414Z" fill="#8C755D"/>
<path d="M187.032 15.4329C186.717 16.032 186.361 16.6378 185.968 17.2381C186.285 16.6349 186.638 16.0372 187.032 15.4329Z" fill="#897159"/>
<path d="M169.93 24.2743C169.726 24.7672 169.335 24.8035 168.886 24.6475C168.67 24.5721 168.459 24.4816 168.245 24.3686C168.265 24.3382 168.285 24.3371 168.305 24.3359C168.395 24.3383 168.504 24.3077 168.57 24.3483C169.037 24.6377 169.469 24.5569 169.93 24.2743Z" fill="#8E7760"/>
<path d="M170.871 15.7511C170.678 16.314 170.445 16.8771 170.178 17.46C170.374 16.9036 170.603 16.3275 170.871 15.7511Z" fill="#897159"/>
<path d="M193.868 11.4977C193.39 11.5711 192.902 11.6036 192.388 11.6032C192.851 11.3969 193.337 11.1898 193.868 11.4977Z" fill="#876F56"/>
<path d="M166.807 44.8672C166.717 45.2405 166.627 45.6138 166.516 46.0203C166.543 45.6753 166.592 45.2971 166.697 44.8928C166.771 44.8669 166.789 44.867 166.807 44.8672Z" fill="#8C755D"/>
<path d="M169.991 23.1904C170.027 23.511 170.033 23.8635 170.006 24.2361C169.969 23.9115 169.965 23.5669 169.991 23.1904Z" fill="#8E7760"/>
<path d="M195.265 11.7085C194.907 11.6883 194.541 11.6294 194.134 11.559C194.481 11.5882 194.869 11.629 195.265 11.7085Z" fill="#876F56"/>
<path d="M164.214 24.3184C163.938 24.4859 163.64 24.6229 163.303 24.7602C163.573 24.603 163.882 24.4454 164.214 24.3184Z" fill="#8E7760"/>
<path d="M166.121 48.746C166.166 48.9922 166.17 49.2471 166.169 49.5494C165.782 49.3506 165.908 49.0549 166.121 48.746Z" fill="#8C755D"/>
<path d="M159.678 30.8226C159.712 31.257 159.716 31.7233 159.715 32.239C159.689 31.8104 159.668 31.3325 159.678 30.8226Z" fill="#876F56"/>
<path d="M166.827 44.8385C166.789 44.867 166.771 44.8669 166.726 44.8661C166.709 44.8035 166.718 44.7414 166.742 44.6382C166.757 44.5971 166.747 44.6065 166.747 44.6065C166.798 44.5236 166.85 44.4406 166.936 44.3456C166.93 44.4923 166.889 44.651 166.827 44.8385Z" fill="#8E7760"/>
<path d="M171.187 15.2108C171.137 15.3764 171.048 15.5445 170.931 15.7336C170.984 15.5743 171.066 15.3937 171.187 15.2108Z" fill="#897159"/>
<path d="M162.7 25.0979C162.618 25.2055 162.495 25.3098 162.339 25.4281C162.424 25.3262 162.541 25.2104 162.7 25.0979Z" fill="#8E7760"/>
<path d="M169.694 21.5559C169.761 21.6559 169.799 21.7765 169.832 21.9373C169.773 21.8438 169.719 21.7102 169.694 21.5559Z" fill="#876F56"/>
<path d="M169.909 22.7378C169.96 22.8056 169.983 22.8919 170.004 23.0123C169.961 22.9496 169.92 22.853 169.909 22.7378Z" fill="#8E7760"/>
<path d="M187.863 14.2454C187.838 14.3385 187.772 14.4318 187.679 14.5454C187.708 14.459 187.765 14.3522 187.863 14.2454Z" fill="#876F56"/>
<path d="M163.038 24.8829C162.988 24.9529 162.895 25.0203 162.77 25.0973C162.823 25.0313 162.91 24.9559 163.038 24.8829Z" fill="#8E7760"/>
<path d="M171.622 14.5687C171.604 14.6624 171.546 14.7569 171.461 14.8704C171.483 14.7829 171.533 14.6762 171.622 14.5687Z" fill="#897159"/>
<path d="M187.528 14.6736C187.51 14.769 187.451 14.8657 187.363 14.9814C187.386 14.8918 187.437 14.7833 187.528 14.6736Z" fill="#876F56"/>
<path d="M171.4 14.8877C171.384 14.981 171.329 15.0774 171.247 15.1937C171.267 15.1059 171.314 14.9984 171.4 14.8877Z" fill="#897159"/>
<path d="M187.301 14.9973C187.285 15.095 187.229 15.1953 187.147 15.3188C187.167 15.2279 187.213 15.1139 187.301 14.9973Z" fill="#876F56"/>
<path d="M159.706 32.7313C159.766 32.7663 159.799 32.8183 159.827 32.903C159.774 32.8733 159.727 32.8108 159.706 32.7313Z" fill="#876F56"/>
<path d="M201.496 24.5445C201.426 24.5269 201.356 24.4694 201.274 24.379C201.341 24.399 201.418 24.4519 201.496 24.5445Z" fill="#876F56"/>
<path d="M169.783 19.5045C169.805 19.5651 169.795 19.629 169.754 19.7087C169.733 19.6522 169.742 19.5801 169.783 19.5045Z" fill="#876F56"/>
<path d="M161.84 25.8472C161.82 25.9062 161.768 25.968 161.684 26.0328C161.705 25.9739 161.755 25.9119 161.84 25.8472Z" fill="#8E7760"/>
<path d="M169.995 17.9121C170.028 17.9719 170.036 18.0515 170.036 18.1703C170.007 18.117 169.988 18.0244 169.995 17.9121Z" fill="#876F56"/>
<path d="M167.86 24.2241C167.778 24.2423 167.679 24.2256 167.563 24.1756C167.644 24.1579 167.744 24.1735 167.86 24.2241Z" fill="#876F56"/>
<path d="M160.68 27.3693C160.691 27.4198 160.668 27.4859 160.616 27.5722C160.607 27.5232 160.626 27.454 160.68 27.3693Z" fill="#876F56"/>
<path d="M171.739 14.3616C171.751 14.41 171.731 14.4738 171.683 14.5553C171.672 14.5076 171.689 14.4423 171.739 14.3616Z" fill="#897159"/>
<path d="M170.109 17.5865C170.125 17.6339 170.114 17.7008 170.07 17.7845C170.052 17.7363 170.067 17.6712 170.109 17.5865Z" fill="#897159"/>
<path d="M168.293 24.3109C168.285 24.337 168.265 24.3381 168.216 24.3432C168.186 24.3471 168.141 24.3496 168.12 24.341C168.16 24.3168 168.22 24.3013 168.293 24.3109Z" fill="#876F56"/>
<path d="M167.043 42.0502C167.092 42.0478 167.152 42.082 167.23 42.1452C167.183 42.145 167.118 42.1159 167.043 42.0502Z" fill="#8E7760"/>
<path d="M169.899 18.4418C169.935 18.4747 169.946 18.5236 169.947 18.6095C169.916 18.5836 169.894 18.5207 169.899 18.4418Z" fill="#876F56"/>
<path d="M166.747 44.6035C166.747 44.6071 166.757 44.5972 166.758 44.5936C166.759 44.5899 166.748 44.6 166.747 44.6035Z" fill="#FEFEFE"/>
<path d="M169.789 22.3069C169.806 22.2982 169.815 22.3493 169.81 22.3748C169.788 22.3832 169.769 22.3674 169.754 22.348C169.751 22.3439 169.765 22.3267 169.789 22.3069Z" fill="#876F56"/>
<path d="M181.311 55.5073C181.23 55.5465 181.148 55.5857 181.011 55.5983C180.39 55.6951 179.824 55.8126 179.262 55.9484C179.182 55.9677 179.124 56.0763 179.056 56.1435C179.01 56.1533 178.963 56.1631 178.852 56.1345C178.009 56.0813 177.23 56.0629 176.452 56.0579C176.381 56.0575 176.311 56.1433 176.241 56.1891C176.094 56.1673 175.947 56.1454 175.747 56.0629C175.47 55.9478 175.245 55.8935 175.02 55.8393C175.02 55.8393 175.028 55.864 174.999 55.8406C174.9 55.8186 174.83 55.8201 174.761 55.8215C173.79 55.382 172.849 54.9503 172.039 54.1801C169.963 52.2056 169.595 49.8101 170.105 47.1727C170.587 44.6755 171.848 42.5325 173.487 40.6489C175.045 38.8591 176.718 37.1629 178.416 35.5033C179.945 34.0095 181.69 32.8171 183.848 32.3936C186.507 31.872 188.988 32.3661 191.107 34.035C192.773 35.3478 194.304 36.8414 195.824 38.327C196.709 39.1919 197.455 40.1993 198.248 41.1967C198.326 41.3425 198.42 41.4343 198.514 41.526C198.514 41.526 198.504 41.5315 198.503 41.5677C198.583 41.6854 198.663 41.7668 198.744 41.8482C198.779 41.8553 198.803 41.8754 198.822 41.9672C198.869 42.0748 198.91 42.124 198.95 42.1731C198.95 42.1731 198.938 42.1725 198.936 42.2086C199.014 42.3276 199.094 42.4104 199.173 42.4932C199.201 42.5401 199.229 42.5871 199.266 42.6926C199.309 42.7737 199.342 42.7963 199.375 42.8189C199.375 42.8189 199.365 42.8179 199.364 42.8548C199.474 43.0447 199.587 43.1979 199.699 43.3511C199.699 43.3511 199.69 43.3575 199.687 43.394C199.741 43.5962 199.78 43.771 199.858 43.9263C200.545 45.2989 201.076 46.7174 201.194 48.2665C201.2 48.3561 201.325 48.4367 201.395 48.5215C201.401 48.8125 201.407 49.1035 201.362 49.4514C201.271 49.8309 201.23 50.1534 201.19 50.4759C201.19 50.4759 201.188 50.5227 201.153 50.5692C201.106 50.7129 201.095 50.8101 201.083 50.9072C201.083 50.9072 201.084 50.9512 201.049 50.9947C200.927 51.3816 200.84 51.725 200.753 52.0684C200.566 52.4148 200.38 52.7612 200.125 53.1311C200.004 53.2632 199.951 53.3717 199.899 53.4802C199.825 53.577 199.751 53.6738 199.609 53.7842C199.376 53.9886 199.211 54.1793 199.047 54.3701C198.718 54.6071 198.389 54.844 197.996 55.0903C197.906 55.1262 197.881 55.1527 197.855 55.1793C197.855 55.1793 197.813 55.1925 197.75 55.1906C197.603 55.2665 197.519 55.3441 197.436 55.4218C197.436 55.4218 197.43 55.4145 197.392 55.41C197.127 55.511 196.9 55.6165 196.672 55.7221C196.672 55.7221 196.629 55.7315 196.564 55.7286C196.27 55.7965 196.041 55.8674 195.765 55.9378C194.532 55.9731 193.346 56.0088 192.132 56.0144C191.78 55.9067 191.457 55.8126 191.129 55.757C190.904 55.7191 190.67 55.7349 190.44 55.7267C189.04 55.1873 187.662 54.607 186.42 53.743C185.859 53.3529 185.287 53.3576 184.686 53.7357C183.932 54.2092 183.14 54.6223 182.303 55.0805C182.218 55.1265 182.195 55.1534 182.172 55.1804C182.09 55.2211 182.009 55.2618 181.876 55.28C181.761 55.3043 181.697 55.3512 181.633 55.398C181.633 55.398 181.59 55.4086 181.534 55.4078C181.422 55.4404 181.366 55.4739 181.311 55.5073Z" fill="#937D67"/>
<path d="M181.764 18.3112C181.795 18.3522 181.827 18.3931 181.856 18.5063C182.03 19.0291 182.206 19.4796 182.382 19.9301C182.382 19.9301 182.392 19.9736 182.39 20.0342C182.422 20.1833 182.456 20.2718 182.491 20.3603C182.491 20.3603 182.499 20.4049 182.497 20.4684C182.529 20.6541 182.565 20.7762 182.6 20.8984C182.602 20.9444 182.605 20.9905 182.584 21.0885C182.61 21.203 182.659 21.2656 182.708 21.3283C182.749 21.9405 182.79 22.5527 182.789 23.2179C182.739 23.3431 182.732 23.4153 182.725 23.4874C182.721 23.5668 182.716 23.6461 182.676 23.7896C182.591 24.051 182.542 24.2484 182.491 24.4906C182.458 24.8349 182.425 25.1342 182.392 25.4336C182.392 25.4336 182.392 25.4783 182.352 25.517C182.09 26.055 181.866 26.5541 181.642 27.0533C181.63 27.1087 181.617 27.164 181.541 27.2334C181.209 27.5384 180.941 27.8295 180.673 28.1205C180.559 28.1879 180.444 28.2553 180.268 28.3293C180.181 28.3626 180.156 28.3893 180.131 28.416C180.131 28.416 180.088 28.4289 180.019 28.4266C179.424 28.4949 178.898 28.6116 178.371 28.6212C177.971 28.6286 177.569 28.4994 177.168 28.4309C176.115 28.1333 175.411 27.3814 174.807 26.5394C173.469 24.6729 173.087 22.5809 173.33 20.3145C173.483 18.8833 173.888 17.6107 174.929 16.5792C176.198 15.3216 177.807 15.0516 179.461 15.9005C179.637 16.0288 179.775 16.0992 179.912 16.1695C179.978 16.2115 180.045 16.2535 180.126 16.3618C180.218 16.4764 180.296 16.5249 180.374 16.5733C180.374 16.5733 180.365 16.5838 180.369 16.6083C180.408 16.6519 180.444 16.6708 180.479 16.6898C180.479 16.6898 180.465 16.6936 180.473 16.717C180.516 16.7593 180.551 16.7782 180.586 16.7972C180.586 16.7972 180.572 16.8011 180.58 16.8245C180.623 16.8669 180.658 16.8859 180.694 16.9049C180.694 16.9049 180.681 16.8999 180.682 16.9364C180.763 17.0233 180.843 17.0737 180.923 17.1241C180.977 17.1759 181.031 17.2277 181.094 17.3427C181.147 17.4537 181.191 17.5015 181.236 17.5493C181.236 17.5493 181.222 17.5583 181.229 17.5812C181.273 17.6241 181.309 17.6441 181.346 17.6641C181.38 17.6693 181.403 17.688 181.421 17.7786C181.467 17.8873 181.509 17.9375 181.55 17.9877C181.55 17.9877 181.537 17.9868 181.535 18.0225C181.609 18.1425 181.686 18.2269 181.764 18.3112Z" fill="#937D67"/>
<path d="M194.309 28.3117C194.309 28.3117 194.268 28.3226 194.203 28.3206C193.387 28.5753 192.629 28.7657 191.827 28.5732C191.798 28.5664 191.752 28.6371 191.713 28.6716C189.553 28.0807 188.836 26.3836 188.508 24.423C188.227 22.7459 188.394 21.0877 188.933 19.4788C189.462 17.9003 190.398 16.6091 191.89 15.8258C193.006 15.2404 194.177 15.2181 195.358 15.8857C195.537 16.0193 195.678 16.0929 195.82 16.1666C195.855 16.1668 195.884 16.1802 195.918 16.2685C196.151 16.5236 196.375 16.7169 196.598 16.9102C196.631 16.9151 196.655 16.9329 196.673 17.027C196.751 17.1742 196.827 17.258 196.903 17.3417C196.903 17.3417 196.893 17.3471 196.892 17.3821C196.966 17.5001 197.04 17.5832 197.115 17.6663C197.115 17.6663 197.106 17.671 197.107 17.7001C197.143 17.7825 197.177 17.8359 197.211 17.8893C197.211 17.8893 197.226 17.9232 197.22 17.9858C197.801 19.5976 197.781 21.2142 197.714 22.8605C197.471 24.0511 197.068 25.1384 196.42 26.1336C196.331 26.2708 196.311 26.4532 196.259 26.6147C196.259 26.6147 196.256 26.599 196.221 26.6028C196.098 26.7384 196.01 26.8704 195.921 27.0023C195.448 27.3958 194.975 27.7893 194.442 28.2059C194.358 28.2566 194.333 28.2842 194.309 28.3117Z" fill="#937D67"/>
<path d="M172.073 36.7948C170.439 39.2899 167.915 38.8096 166.291 37.4596C164.899 36.3022 163.89 34.8322 163.529 33.0157C163.227 31.4995 163.329 30.0348 164.358 28.7623C165.21 27.7092 166.344 27.4439 167.577 27.7571C169.272 28.1876 170.467 29.3151 171.351 30.7935C171.414 30.8994 171.484 31.0013 171.549 31.1814C171.62 31.3128 171.693 31.3678 171.765 31.4228C171.765 31.4228 171.756 31.4289 171.757 31.4573C171.791 31.5395 171.824 31.5932 171.858 31.6469C171.858 31.6469 171.871 31.6822 171.875 31.7304C171.907 31.8061 171.935 31.8337 171.962 31.8613C171.962 31.8613 171.976 31.8992 171.973 31.9632C172.355 33.1664 172.588 34.3291 172.51 35.5397C172.51 35.5397 172.508 35.584 172.476 35.6245C172.46 35.7579 172.476 35.8509 172.493 35.9438C172.494 35.9637 172.494 35.9835 172.446 36.0375C172.289 36.3127 172.181 36.5537 172.073 36.7948Z" fill="#937D67"/>
<path d="M206.128 36.2796C206.053 36.3775 205.978 36.4754 205.834 36.5866C205.603 36.7906 205.44 36.9814 205.277 37.1721C205.189 37.2598 205.101 37.3474 204.944 37.4442C204.793 37.53 204.712 37.6067 204.631 37.6834C204.631 37.6834 204.626 37.6742 204.592 37.6723C204.472 37.738 204.386 37.8057 204.3 37.8733C204.3 37.8733 204.259 37.8875 204.21 37.8952C204.135 37.9308 204.11 37.9585 204.085 37.9863C204.085 37.9863 204.043 37.9961 203.978 37.9939C203.142 38.2121 202.382 38.508 201.552 38.3108C201.213 38.23 200.867 38.1746 200.524 38.1077C200.524 38.1077 200.535 38.1075 200.533 38.0779C200.461 38.0296 200.392 38.0109 200.323 37.9921C198.973 37.1518 198.508 35.8427 198.63 34.3678C198.827 31.987 200.002 30.09 201.887 28.6544C202.892 27.8892 204.041 27.4563 205.33 27.7124C206.446 27.934 207.707 29.4409 207.857 30.7957C207.961 31.7358 207.786 32.6145 207.511 33.5624C207.11 34.2903 206.755 34.9563 206.411 35.6281C206.385 35.6787 206.44 35.7708 206.458 35.8436C206.456 35.8786 206.443 35.9088 206.356 35.9458C206.238 36.0648 206.183 36.1722 206.128 36.2796Z" fill="#937D67"/>
<path d="M201.4 48.4742C201.325 48.4368 201.2 48.3562 201.194 48.2666C201.076 46.7175 200.545 45.299 199.857 43.9264C199.78 43.7712 199.741 43.5963 199.688 43.3887C200.665 44.9042 201.247 46.5938 201.4 48.4742Z" fill="#897159"/>
<path d="M197.744 22.8328C197.781 21.2142 197.801 19.5976 197.217 18.004C197.455 18.6876 197.799 19.4016 197.893 20.1472C198.001 21.0004 197.886 21.8816 197.83 22.7918C197.793 22.8329 197.744 22.8328 197.744 22.8328Z" fill="#8C755D"/>
<path d="M197.714 22.8605C197.744 22.8327 197.793 22.8328 197.817 22.8328C197.7 24.2294 197.13 25.4519 196.29 26.5962C196.311 26.4532 196.331 26.2708 196.42 26.1336C197.068 25.1384 197.471 24.0511 197.714 22.8605Z" fill="#8E7760"/>
<path d="M172.547 35.5193C172.588 34.3291 172.355 33.1664 171.972 31.9834C172.614 33.0513 172.866 34.2295 172.547 35.5193Z" fill="#8E7760"/>
<path d="M192.16 56.0445C193.346 56.0088 194.532 55.9731 195.765 55.9601C195.813 55.9827 195.813 56.0271 195.813 56.0271C194.635 56.359 193.444 56.3744 192.202 56.1313C192.16 56.0938 192.16 56.0445 192.16 56.0445Z" fill="#897159"/>
<path d="M200.548 38.1371C200.867 38.1747 201.213 38.23 201.552 38.3108C202.382 38.5081 203.142 38.2122 203.956 37.994C202.891 38.7335 201.745 38.7212 200.548 38.1371Z" fill="#8C755D"/>
<path d="M177.186 28.4701C177.569 28.4993 177.971 28.6285 178.37 28.6212C178.898 28.6115 179.424 28.4949 179.997 28.4266C179.111 28.9901 178.163 28.962 177.186 28.4701Z" fill="#897159"/>
<path d="M206.486 35.8225C206.44 35.7709 206.385 35.6788 206.411 35.6282C206.755 34.9564 207.11 34.2904 207.493 33.6017C207.188 34.3207 206.852 35.061 206.486 35.8225Z" fill="#8C755D"/>
<path d="M191.745 28.6976C191.751 28.6371 191.798 28.5665 191.826 28.5733C192.629 28.7658 193.387 28.5754 194.182 28.321C193.484 28.9137 192.649 28.9279 191.745 28.6976Z" fill="#8E7760"/>
<path d="M176.276 56.2193C176.311 56.1433 176.381 56.0575 176.452 56.058C177.23 56.063 178.009 56.0813 178.816 56.1295C178 56.1918 177.156 56.2207 176.276 56.2193Z" fill="#876F56"/>
<path d="M179.1 56.1475C179.124 56.0763 179.182 55.9677 179.262 55.9484C179.824 55.8126 180.39 55.6951 180.976 55.6024C180.38 55.8059 179.762 55.9787 179.1 56.1475Z" fill="#876F56"/>
<path d="M192.132 56.0144C192.16 56.0445 192.16 56.0937 192.16 56.1184C191.61 56.0166 191.059 55.8903 190.474 55.7453C190.67 55.735 190.904 55.7191 191.129 55.7571C191.457 55.8126 191.78 55.9067 192.132 56.0144Z" fill="#8C755D"/>
<path d="M181.676 27.0371C181.866 26.5541 182.09 26.0549 182.347 25.5386C182.156 26.0213 181.933 26.5211 181.676 27.0371Z" fill="#8C755D"/>
<path d="M182.39 19.8877C182.206 19.4796 182.029 19.0291 181.856 18.5334C182.039 18.9406 182.219 19.393 182.39 19.8877Z" fill="#897159"/>
<path d="M180.707 28.1083C180.941 27.8295 181.209 27.5385 181.516 27.2484C181.284 27.5316 181.013 27.8138 180.707 28.1083Z" fill="#897159"/>
<path d="M200.773 52.0379C200.84 51.7251 200.927 51.3816 201.045 51.0164C200.982 51.3321 200.888 51.6697 200.773 52.0379Z" fill="#897159"/>
<path d="M182.425 25.4117C182.425 25.1342 182.458 24.8349 182.518 24.48C182.594 24.396 182.644 24.3676 182.693 24.3392C182.615 24.6895 182.536 25.0397 182.425 25.4117Z" fill="#8C755D"/>
<path d="M201.225 50.4541C201.23 50.1535 201.27 49.831 201.353 49.4993C201.349 49.8041 201.305 50.1182 201.225 50.4541Z" fill="#897159"/>
<path d="M196.582 16.8772C196.375 16.7169 196.151 16.5236 195.928 16.2911C196.141 16.4494 196.354 16.6468 196.582 16.8772Z" fill="#8C755D"/>
<path d="M195.852 56.0277C195.813 56.0272 195.813 55.9828 195.812 55.9606C196.041 55.8675 196.27 55.7966 196.542 55.7278C196.354 55.8293 196.123 55.9287 195.852 56.0277Z" fill="#876F56"/>
<path d="M205.31 37.1548C205.44 36.9814 205.603 36.7906 205.807 36.6014C205.679 36.7812 205.511 36.9593 205.31 37.1548Z" fill="#876F56"/>
<path d="M172.108 36.7862C172.181 36.5537 172.289 36.3126 172.431 36.0636C172.358 36.2963 172.25 36.537 172.108 36.7862Z" fill="#8E7760"/>
<path d="M199.08 54.3526C199.211 54.1794 199.376 53.9886 199.582 53.7993C199.453 53.9789 199.283 54.157 199.08 54.3526Z" fill="#876F56"/>
<path d="M196.711 55.7274C196.9 55.6166 197.127 55.511 197.397 55.4087C197.209 55.5188 196.98 55.6257 196.711 55.7274Z" fill="#876F56"/>
<path d="M199.692 43.3158C199.587 43.198 199.474 43.0448 199.366 42.8502C199.474 42.966 199.579 43.1232 199.692 43.3158Z" fill="#897159"/>
<path d="M175.04 55.8783C175.245 55.8936 175.47 55.9478 175.719 56.0389C175.515 56.0229 175.287 55.9701 175.04 55.8783Z" fill="#876F56"/>
<path d="M182.707 24.3083C182.644 24.3676 182.594 24.396 182.518 24.4351C182.542 24.2484 182.591 24.051 182.669 23.8287C182.706 23.9617 182.714 24.1195 182.707 24.3083Z" fill="#897159"/>
<path d="M195.954 26.9962C196.01 26.8704 196.098 26.7385 196.226 26.6093C196.173 26.738 196.08 26.864 195.954 26.9962Z" fill="#8E7760"/>
<path d="M198.504 41.4946C198.42 41.4343 198.326 41.3426 198.259 41.2311C198.356 41.2953 198.425 41.3792 198.504 41.4946Z" fill="#897159"/>
<path d="M195.8 16.1393C195.678 16.093 195.537 16.0194 195.39 15.9091C195.517 15.9523 195.649 16.0321 195.8 16.1393Z" fill="#8C755D"/>
<path d="M179.893 16.1427C179.775 16.0992 179.637 16.0288 179.494 15.9236C179.617 15.9644 179.746 16.0401 179.893 16.1427Z" fill="#897159"/>
<path d="M182.617 20.8729C182.565 20.7763 182.529 20.6542 182.496 20.4911C182.543 20.5826 182.589 20.715 182.617 20.8729Z" fill="#897159"/>
<path d="M197.47 55.4161C197.519 55.3441 197.603 55.2665 197.728 55.1909C197.681 55.2655 197.593 55.3379 197.47 55.4161Z" fill="#876F56"/>
<path d="M198.732 41.8162C198.663 41.7669 198.583 41.6855 198.505 41.5626C198.578 41.6088 198.649 41.6964 198.732 41.8162Z" fill="#897159"/>
<path d="M199.162 42.4607C199.094 42.4104 199.014 42.3276 198.938 42.203C199.012 42.2502 199.081 42.3392 199.162 42.4607Z" fill="#897159"/>
<path d="M181.755 18.2777C181.686 18.2268 181.609 18.1425 181.537 18.0167C181.611 18.0649 181.679 18.1545 181.755 18.2777Z" fill="#897159"/>
<path d="M204.334 37.8745C204.386 37.8057 204.472 37.7381 204.597 37.6733C204.547 37.7427 204.457 37.8092 204.334 37.8745Z" fill="#876F56"/>
<path d="M204.663 37.6747C204.712 37.6068 204.793 37.5301 204.914 37.4537C204.868 37.5247 204.782 37.5953 204.663 37.6747Z" fill="#876F56"/>
<path d="M206.156 36.26C206.183 36.1722 206.238 36.0648 206.333 35.9568C206.311 36.0509 206.248 36.1456 206.156 36.26Z" fill="#876F56"/>
<path d="M196.894 17.3087C196.827 17.258 196.751 17.1742 196.677 17.0498C196.748 17.098 196.817 17.1868 196.894 17.3087Z" fill="#8C755D"/>
<path d="M199.926 53.4595C199.951 53.3718 200.004 53.2633 200.097 53.1536C200.076 53.2478 200.015 53.3433 199.926 53.4595Z" fill="#876F56"/>
<path d="M182.505 20.3357C182.456 20.2718 182.422 20.1833 182.389 20.0565C182.434 20.1159 182.477 20.2136 182.505 20.3357Z" fill="#897159"/>
<path d="M197.107 17.6334C197.04 17.5832 196.966 17.5001 196.894 17.3768C196.965 17.4246 197.032 17.5126 197.107 17.6334Z" fill="#8C755D"/>
<path d="M180.908 17.0938C180.843 17.0737 180.763 17.0233 180.687 16.932C180.758 16.9486 180.825 17.006 180.908 17.0938Z" fill="#897159"/>
<path d="M181.666 55.4054C181.697 55.3513 181.761 55.3044 181.842 55.2852C181.805 55.346 181.752 55.3794 181.666 55.4054Z" fill="#876F56"/>
<path d="M180.362 16.542C180.296 16.5249 180.218 16.4764 180.14 16.3881C180.21 16.4023 180.28 16.4565 180.362 16.542Z" fill="#897159"/>
<path d="M182.755 23.4716C182.732 23.4152 182.739 23.3431 182.778 23.2672C182.802 23.3276 182.793 23.3917 182.755 23.4716Z" fill="#897159"/>
<path d="M200.342 38.0164C200.392 38.0109 200.461 38.0297 200.529 38.0819C200.472 38.0905 200.416 38.0656 200.342 38.0164Z" fill="#8C755D"/>
<path d="M182.712 21.2951C182.659 21.2656 182.61 21.203 182.587 21.1229C182.648 21.1576 182.682 21.2098 182.712 21.2951Z" fill="#897159"/>
<path d="M171.759 31.3882C171.693 31.3679 171.62 31.3129 171.547 31.2188C171.615 31.2376 171.684 31.2956 171.759 31.3882Z" fill="#8E7760"/>
<path d="M172.504 35.905C172.476 35.8509 172.46 35.7579 172.468 35.6455C172.501 35.7061 172.508 35.7861 172.504 35.905Z" fill="#8E7760"/>
<path d="M201.117 50.8879C201.095 50.8102 201.106 50.713 201.146 50.5917C201.167 50.6678 201.159 50.7681 201.117 50.8879Z" fill="#897159"/>
<path d="M174.8 55.8368C174.83 55.8201 174.9 55.8187 174.987 55.8466C174.949 55.868 174.894 55.86 174.8 55.8368Z" fill="#876F56"/>
<path d="M181.346 55.5159C181.366 55.4739 181.422 55.4404 181.511 55.4071C181.491 55.4463 181.435 55.4854 181.346 55.5159Z" fill="#876F56"/>
<path d="M181.232 17.5161C181.191 17.5015 181.147 17.4537 181.102 17.3701C181.144 17.3838 181.186 17.4333 181.232 17.5161Z" fill="#897159"/>
<path d="M198.944 42.1412C198.909 42.1241 198.869 42.075 198.825 41.9913C198.861 42.0076 198.9 42.0585 198.944 42.1412Z" fill="#897159"/>
<path d="M181.544 17.9551C181.509 17.9374 181.467 17.8873 181.424 17.8018C181.461 17.8185 181.5 17.8705 181.544 17.9551Z" fill="#897159"/>
<path d="M197.214 17.856C197.177 17.8359 197.143 17.7825 197.109 17.6953C197.145 17.7153 197.181 17.769 197.214 17.856Z" fill="#8C755D"/>
<path d="M171.861 31.6137C171.824 31.5931 171.791 31.5394 171.759 31.452C171.794 31.4724 171.829 31.5264 171.861 31.6137Z" fill="#8E7760"/>
<path d="M180.16 28.4157C180.156 28.3893 180.181 28.3626 180.234 28.3286C180.237 28.3527 180.214 28.3841 180.16 28.4157Z" fill="#897159"/>
<path d="M180.471 16.6597C180.444 16.6709 180.408 16.6519 180.366 16.6024C180.394 16.5911 180.429 16.6103 180.471 16.6597Z" fill="#897159"/>
<path d="M194.34 28.3122C194.333 28.2842 194.358 28.2567 194.409 28.2211C194.414 28.2462 194.392 28.2795 194.34 28.3122Z" fill="#8E7760"/>
<path d="M180.579 16.7671C180.551 16.7782 180.516 16.7593 180.474 16.7098C180.502 16.6985 180.536 16.7178 180.579 16.7671Z" fill="#897159"/>
<path d="M180.686 16.8748C180.658 16.8859 180.623 16.8669 180.581 16.8173C180.609 16.8061 180.644 16.8254 180.686 16.8748Z" fill="#897159"/>
<path d="M204.115 37.9874C204.11 37.9586 204.135 37.9308 204.188 37.8955C204.193 37.9215 204.17 37.955 204.115 37.9874Z" fill="#8C755D"/>
<path d="M199.366 42.79C199.342 42.7964 199.309 42.7738 199.266 42.7219C199.29 42.7154 199.323 42.7381 199.366 42.79Z" fill="#897159"/>
<path d="M197.885 55.1792C197.881 55.1527 197.906 55.1262 197.959 55.0923C197.962 55.1163 197.938 55.1476 197.885 55.1792Z" fill="#876F56"/>
<path d="M182.201 55.1806C182.195 55.1535 182.218 55.1266 182.267 55.0909C182.272 55.1151 182.251 55.148 182.201 55.1806Z" fill="#876F56"/>
<path d="M181.333 17.6345C181.309 17.6441 181.273 17.6241 181.226 17.5734C181.251 17.5634 181.286 17.5841 181.333 17.6345Z" fill="#897159"/>
<path d="M171.962 31.8301C171.935 31.8337 171.907 31.8061 171.874 31.7491C171.899 31.7461 171.93 31.7726 171.962 31.8301Z" fill="#8E7760"/>
</g>
<defs>
<clipPath id="clip0_38_191">
<rect width="55" height="56" fill="white" transform="translate(158 8)"/>
</clipPath>
</defs>
</svg>
